<svg xmlns="http://www.w3.org/2000/svg" version="1.1" xmlns:xlink="http://www.w3.org/1999/xlink" xmlns:svgjs="http://svgjs.com/svgjs" width="1920" height="1080" preserveAspectRatio="none" viewBox="0 0 1920 1080">
    <g mask="url(&quot;#SvgjsMask1410&quot;)" fill="none">
        <rect width="1920" height="1080" x="0" y="0" fill="rgba(34, 33, 46, 1)"></rect>
        <path d="M141.84 304.28L211.13 344.28L211.13 424.28L141.84 464.28L72.56 424.28L72.56 344.28zM72.56 424.28L141.84 464.28L141.84 544.28L72.56 584.28L3.28 544.28L3.28 464.28zM141.84 784.28L211.13 824.28L211.13 904.28L141.84 944.28L72.56 904.28L72.56 824.28zM72.56 904.28L141.84 944.28L141.84 1024.28L72.56 1064.28L3.28 1024.28L3.28 944.28zM211.13 -55.72L280.41 -15.72L280.41 64.28L211.13 104.28L141.84 64.28L141.84 -15.72zM211.13 664.28L280.41 704.28L280.41 784.28L211.13 824.28L141.84 784.28L141.84 704.28zM349.7 184.28L418.98 224.28L418.98 304.28L349.7 344.28L280.41 304.28L280.41 224.28zM349.7 424.28L418.98 464.28L418.98 544.28L349.7 584.28L280.41 544.28L280.41 464.28zM418.98 544.28L488.26 584.28L488.26 664.28L418.98 704.28L349.7 664.28L349.7 584.28zM488.26 904.28L557.55 944.28L557.55 1024.28L488.26 1064.28L418.98 1024.28L418.98 944.28zM557.55 1024.28L626.83 1064.28L626.83 1144.28L557.55 1184.28L488.26 1144.28L488.26 1064.28zM626.83 184.28L696.12 224.28L696.12 304.28L626.83 344.28L557.55 304.28L557.55 224.28zM696.12 784.28L765.4 824.28L765.4 904.28L696.12 944.28L626.83 904.28L626.83 824.28zM834.68 304.28L903.97 344.28L903.97 424.28L834.68 464.28L765.4 424.28L765.4 344.28zM834.68 544.28L903.97 584.28L903.97 664.28L834.68 704.28L765.4 664.28L765.4 584.28zM834.68 1024.28L903.97 1064.28L903.97 1144.28L834.68 1184.28L765.4 1144.28L765.4 1064.28zM973.25 784.28L1042.54 824.28L1042.54 904.28L973.25 944.28L903.97 904.28L903.97 824.28zM1042.54 184.28L1111.82 224.28L1111.82 304.28L1042.54 344.28L973.25 304.28L973.25 224.28zM1111.82 544.28L1181.1 584.28L1181.1 664.28L1111.82 704.28L1042.54 664.28L1042.54 584.28zM1181.1 184.28L1250.39 224.28L1250.39 304.28L1181.1 344.28L1111.82 304.28L1111.82 224.28zM1319.67 -55.72L1388.96 -15.72L1388.96 64.28L1319.67 104.28L1250.39 64.28L1250.39 -15.72zM1388.96 544.28L1458.24 584.28L1458.24 664.28L1388.96 704.28L1319.67 664.28L1319.67 584.28zM1596.81 184.28L1666.09 224.28L1666.09 304.28L1596.81 344.28L1527.52 304.28L1527.52 224.28zM1735.38 -55.72L1804.66 -15.72L1804.66 64.28L1735.38 104.28L1666.09 64.28L1666.09 -15.72zM1804.66 304.28L1873.94 344.28L1873.94 424.28L1804.66 464.28L1735.38 424.28L1735.38 344.28zM1943.23 784.28L2012.51 824.28L2012.51 904.28L1943.23 944.28L1873.94 904.28L1873.94 824.28z" stroke="rgba(40, 38, 57, 1)" stroke-width="2"></path>
    </g>
    <defs>
        <mask id="SvgjsMask1410">
            <rect width="1920" height="1080" fill="#ffffff"></rect>
        </mask>
    </defs>
</svg>